<?xml version="1.0" encoding="UTF-8" standalone="no"?>
<!DOCTYPE svg PUBLIC "-//W3C//DTD SVG 1.1//EN" "http://www.w3.org/Graphics/SVG/1.1/DTD/svg11.dtd">
<svg width="100%" height="100%" viewBox="0 0 1353 994" version="1.1" xmlns="http://www.w3.org/2000/svg" xmlns:xlink="http://www.w3.org/1999/xlink" xml:space="preserve" xmlns:serif="http://www.serif.com/" style="fill-rule:evenodd;clip-rule:evenodd;stroke-linecap:round;stroke-linejoin:round;stroke-miterlimit:1.5;">
    <g transform="matrix(1,0,0,1,-3381.465845,-2230.043674)">
        <g id="頭割予兆" transform="matrix(1,0,0,1,3217.075754,1792.710066)">
            <g transform="matrix(1,0,0,1,-1467.21647,-886.273336)">
                <ellipse cx="1948.495" cy="1486.052" rx="235.042" ry="100.748" style="fill:rgb(231,118,0);stroke:rgb(255,183,1);stroke-width:27.5px;"/>
                <g transform="matrix(-1,-0,0,-0.7041,3677.667469,2668.196587)">
                    <path d="M1729.173,1753.937L1834.501,1890.129L1623.845,1890.129L1729.173,1753.937Z" style="fill:rgb(231,118,0);stroke:rgb(255,183,1);stroke-width:31.8px;"/>
                </g>
                <g transform="matrix(1,0,0,1,219.321812,-235.233155)">
                    <path d="M1729.173,1753.937L1834.501,1890.129L1623.845,1890.129L1729.173,1753.937Z" style="fill:rgb(231,118,0);stroke:rgb(255,183,1);stroke-width:27.5px;"/>
                </g>
                <g transform="matrix(0,0.5,-1,0,3535.485819,621.327344)">
                    <path d="M1729.173,1753.937L1834.501,1890.129L1623.845,1890.129L1729.173,1753.937Z" style="fill:rgb(231,118,0);stroke:rgb(255,183,1);stroke-width:34.79px;"/>
                </g>
                <g transform="matrix(0,-0.5,1,0,361.503462,2350.500172)">
                    <path d="M1729.173,1753.937L1834.501,1890.129L1623.845,1890.129L1729.173,1753.937Z" style="fill:rgb(231,118,0);stroke:rgb(255,183,1);stroke-width:34.79px;"/>
                </g>
            </g>
            <g transform="matrix(1,0,0,1,-748.240099,-237.619638)">
                <ellipse cx="1948.495" cy="1486.052" rx="235.042" ry="100.748" style="fill:rgb(231,118,0);stroke:rgb(255,183,1);stroke-width:27.5px;"/>
                <g transform="matrix(-1,-0,0,-0.7041,3677.667469,2668.196587)">
                    <path d="M1729.173,1753.937L1834.501,1890.129L1623.845,1890.129L1729.173,1753.937Z" style="fill:rgb(231,118,0);stroke:rgb(255,183,1);stroke-width:31.8px;"/>
                </g>
                <g transform="matrix(1,0,0,1,219.321812,-235.233155)">
                    <path d="M1729.173,1753.937L1834.501,1890.129L1623.845,1890.129L1729.173,1753.937Z" style="fill:rgb(231,118,0);stroke:rgb(255,183,1);stroke-width:27.5px;"/>
                </g>
                <g transform="matrix(0,0.5,-1,0,3535.485819,621.327344)">
                    <path d="M1729.173,1753.937L1834.501,1890.129L1623.845,1890.129L1729.173,1753.937Z" style="fill:rgb(231,118,0);stroke:rgb(255,183,1);stroke-width:34.79px;"/>
                </g>
                <g transform="matrix(0,-0.5,1,0,361.503462,2350.500172)">
                    <path d="M1729.173,1753.937L1834.501,1890.129L1623.845,1890.129L1729.173,1753.937Z" style="fill:rgb(231,118,0);stroke:rgb(255,183,1);stroke-width:34.79px;"/>
                </g>
            </g>
        </g>
    </g>
</svg>
