<?xml version="1.0" encoding="UTF-8" standalone="no"?>
<!DOCTYPE svg PUBLIC "-//W3C//DTD SVG 1.1//EN" "http://www.w3.org/Graphics/SVG/1.1/DTD/svg11.dtd">
<svg width="100%" height="100%" viewBox="0 0 602 492" version="1.1" xmlns="http://www.w3.org/2000/svg" xmlns:xlink="http://www.w3.org/1999/xlink" xml:space="preserve" xmlns:serif="http://www.serif.com/" style="fill-rule:evenodd;clip-rule:evenodd;stroke-linecap:round;stroke-linejoin:round;stroke-miterlimit:1.5;">
    <g transform="matrix(1,0,0,1,-4348.949452,-1057.579128)">
        <g id="予兆真・床真">
            <g transform="matrix(1,0,0,1,492.384372,-198.666418)">
                <ellipse cx="4157.531" cy="1576.872" rx="287.216" ry="126.659" style="fill:rgb(241,189,243);fill-opacity:0;stroke:rgb(0,170,233);stroke-width:27.5px;"/>
            </g>
            <g transform="matrix(1,0,0,1,492.384372,-325.325388)">
                <ellipse cx="4157.531" cy="1576.872" rx="287.216" ry="126.659" style="fill:rgb(241,189,243);fill-opacity:0;stroke:rgb(233,0,0);stroke-width:27.5px;"/>
            </g>
            <g transform="matrix(1,0,0,1,338.178016,-961.466639)">
                <circle cx="4178.742" cy="2222.749" r="53.559" style="fill:rgb(70,255,244);stroke:rgb(8,0,155);stroke-width:27.5px;"/>
            </g>
            <g transform="matrix(1,0,0,1,569.853305,-1097.860795)">
                <circle cx="4178.742" cy="2222.749" r="53.559" style="fill:rgb(70,255,244);stroke:rgb(8,0,155);stroke-width:27.5px;"/>
            </g>
            <g transform="matrix(1,0,0,1,417.614069,-854.349083)">
                <circle cx="4178.742" cy="2222.749" r="53.559" style="fill:rgb(70,255,244);stroke:rgb(8,0,155);stroke-width:27.5px;"/>
            </g>
            <g transform="matrix(1,0,0,1,623.412083,-740.578304)">
                <circle cx="4178.742" cy="2222.749" r="53.559" style="fill:rgb(70,255,244);stroke:rgb(8,0,155);stroke-width:27.5px;"/>
            </g>
        </g>
    </g>
</svg>
