<?xml version="1.0" encoding="UTF-8" standalone="no"?>
<!DOCTYPE svg PUBLIC "-//W3C//DTD SVG 1.1//EN" "http://www.w3.org/Graphics/SVG/1.1/DTD/svg11.dtd">
<svg width="100%" height="100%" viewBox="0 0 602 492" version="1.1" xmlns="http://www.w3.org/2000/svg" xmlns:xlink="http://www.w3.org/1999/xlink" xml:space="preserve" xmlns:serif="http://www.serif.com/" style="fill-rule:evenodd;clip-rule:evenodd;stroke-linecap:round;stroke-linejoin:round;stroke-miterlimit:1.5;">
    <g transform="matrix(1,0,0,1,-3636.750629,-1696.224118)">
        <g id="予兆偽・床偽" transform="matrix(1,0,0,1,-117.234374,8.510228)">
            <g transform="matrix(1,0,0,1,-102.580077,431.468343)">
                <ellipse cx="4157.531" cy="1576.872" rx="287.216" ry="126.659" style="fill:rgb(241,189,243);fill-opacity:0;stroke:rgb(0,170,233);stroke-width:27.5px;"/>
            </g>
            <g transform="matrix(1,0,0,1,-102.580077,304.809373)">
                <ellipse cx="4157.531" cy="1576.872" rx="287.216" ry="126.659" style="fill:rgb(241,189,243);fill-opacity:0;stroke:rgb(233,0,0);stroke-width:27.5px;"/>
            </g>
            <g transform="matrix(1,0,0,1,-102.580077,304.809373)">
                <g transform="matrix(1,0,0,1,-107.117556,-522.370471)">
                    <circle cx="4178.742" cy="2222.749" r="53.559" style="fill:rgb(255,88,8);stroke:rgb(255,0,0);stroke-width:27.5px;"/>
                </g>
                <g transform="matrix(2.001211,0,0,2.001211,-3750.099229,-2241.661617)">
                    <g transform="matrix(50,0,0,50,3924.096647,1987.161527)">
                    </g>
                    <text x="3894.8px" y="1987.162px" style="font-family:'CascadiaCodeRoman-Regular', 'Cascadia Code', monospace;font-size:50px;fill:rgb(255,246,185);">?</text>
                </g>
            </g>
            <g transform="matrix(1,0,0,1,-128.957799,181.303408)">
                <g transform="matrix(1,0,0,1,-107.117556,-522.370471)">
                    <circle cx="4178.742" cy="2222.749" r="53.559" style="fill:rgb(255,88,8);stroke:rgb(255,0,0);stroke-width:27.5px;"/>
                </g>
                <g transform="matrix(2.001211,0,0,2.001211,-3750.099229,-2241.661617)">
                    <g transform="matrix(50,0,0,50,3924.096647,1987.161527)">
                    </g>
                    <text x="3894.8px" y="1987.162px" style="font-family:'CascadiaCodeRoman-Regular', 'Cascadia Code', monospace;font-size:50px;fill:rgb(255,246,185);">?</text>
                </g>
            </g>
            <g transform="matrix(1,0,0,1,64.478918,54.644438)">
                <g transform="matrix(1,0,0,1,-107.117556,-522.370471)">
                    <circle cx="4178.742" cy="2222.749" r="53.559" style="fill:rgb(255,88,8);stroke:rgb(255,0,0);stroke-width:27.5px;"/>
                </g>
                <g transform="matrix(2.001211,0,0,2.001211,-3750.099229,-2241.661617)">
                    <g transform="matrix(50,0,0,50,3924.096647,1987.161527)">
                    </g>
                    <text x="3894.8px" y="1987.162px" style="font-family:'CascadiaCodeRoman-Regular', 'Cascadia Code', monospace;font-size:50px;fill:rgb(255,246,185);">?</text>
                </g>
            </g>
            <g transform="matrix(1,0,0,1,146.54298,411.926929)">
                <g transform="matrix(1,0,0,1,-107.117556,-522.370471)">
                    <circle cx="4178.742" cy="2222.749" r="53.559" style="fill:rgb(255,88,8);stroke:rgb(255,0,0);stroke-width:27.5px;"/>
                </g>
                <g transform="matrix(2.001211,0,0,2.001211,-3750.099229,-2241.661617)">
                    <g transform="matrix(50,0,0,50,3924.096647,1987.161527)">
                    </g>
                    <text x="3894.8px" y="1987.162px" style="font-family:'CascadiaCodeRoman-Regular', 'Cascadia Code', monospace;font-size:50px;fill:rgb(255,246,185);">?</text>
                </g>
            </g>
        </g>
    </g>
</svg>
