<?xml version="1.0" encoding="UTF-8" standalone="no"?>
<!DOCTYPE svg PUBLIC "-//W3C//DTD SVG 1.1//EN" "http://www.w3.org/Graphics/SVG/1.1/DTD/svg11.dtd">
<svg width="100%" height="100%" viewBox="0 0 1289 1370" version="1.1" xmlns="http://www.w3.org/2000/svg" xmlns:xlink="http://www.w3.org/1999/xlink" xml:space="preserve" xmlns:serif="http://www.serif.com/" style="fill-rule:evenodd;clip-rule:evenodd;stroke-linecap:round;stroke-linejoin:round;stroke-miterlimit:1.5;">
    <g transform="matrix(1,0,0,1,-3686.286271,-2042.248098)">
        <g id="散開予兆" transform="matrix(1,0,0,1,1495.729425,1814.477179)">
            <g transform="matrix(-0.619791,-0,0,-0.692308,4692.349105,2677.428451)">
                <path d="M3913.579,2531.255L4014.327,2769.387L3812.831,2769.387L3913.579,2531.255Z" style="fill:rgb(197,70,255);stroke:rgb(255,252,1);stroke-width:41.85px;"/>
            </g>
            <g transform="matrix(-0.619791,-0,0,-0.692308,5229.118191,2158.788869)">
                <path d="M3913.579,2531.255L4014.327,2769.387L3812.831,2769.387L3913.579,2531.255Z" style="fill:rgb(197,70,255);stroke:rgb(255,252,1);stroke-width:41.85px;"/>
            </g>
            <g transform="matrix(-0.619791,-0,0,-0.692308,5229.118191,3335.712043)">
                <path d="M3913.579,2531.255L4014.327,2769.387L3812.831,2769.387L3913.579,2531.255Z" style="fill:rgb(197,70,255);stroke:rgb(255,252,1);stroke-width:41.85px;"/>
            </g>
            <g transform="matrix(-0.619791,-0,0,-0.692308,5828.057071,2759.858868)">
                <path d="M3913.579,2531.255L4014.327,2769.387L3812.831,2769.387L3913.579,2531.255Z" style="fill:rgb(197,70,255);stroke:rgb(255,252,1);stroke-width:41.85px;"/>
            </g>
            <g transform="matrix(-0.619791,-0,0,-0.692308,4968.357219,2471.233088)">
                <path d="M3913.579,2531.255L4014.327,2769.387L3812.831,2769.387L3913.579,2531.255Z" style="fill:rgb(197,70,255);stroke:rgb(255,252,1);stroke-width:41.85px;"/>
            </g>
            <g transform="matrix(-0.619791,-0,0,-0.692308,5469.618539,2471.233088)">
                <path d="M3913.579,2531.255L4014.327,2769.387L3812.831,2769.387L3913.579,2531.255Z" style="fill:rgb(197,70,255);stroke:rgb(255,252,1);stroke-width:41.85px;"/>
            </g>
            <g transform="matrix(-0.619791,-0,0,-0.692308,4968.357219,3015.149311)">
                <path d="M3913.579,2531.255L4014.327,2769.387L3812.831,2769.387L3913.579,2531.255Z" style="fill:rgb(197,70,255);stroke:rgb(255,252,1);stroke-width:41.85px;"/>
            </g>
            <g transform="matrix(-0.619791,-0,0,-0.692308,5469.618539,3015.149311)">
                <path d="M3913.579,2531.255L4014.327,2769.387L3812.831,2769.387L3913.579,2531.255Z" style="fill:rgb(197,70,255);stroke:rgb(255,252,1);stroke-width:41.85px;"/>
            </g>
        </g>
    </g>
</svg>
